<svg id="Capa_1" enable-background="new 0 0 512 512" height="512" viewBox="0 0 512 512" width="512" xmlns="http://www.w3.org/2000/svg"><path d="m117.777 351.618c.883-4.055-1.686-8.059-5.741-8.943-4.061-.886-8.059 1.685-8.944 5.741-.842 3.866-1.508 7.792-1.976 11.669-2.748 22.719 2.269 42.026 14.507 55.834 12.576 14.188 31.94 22.002 54.524 22.002 22.585 0 41.948-7.814 54.524-22.003 12.238-13.807 17.254-33.115 14.506-55.833-2.716-22.47-11.566-44.218-24.918-61.24-13.341-17.009-29.42-26.764-44.113-26.764-17.296 0-36.103 13.276-50.306 35.512-2.352 3.682-4.551 7.588-6.534 11.609-1.837 3.722-.308 8.227 3.414 10.064 3.724 1.837 8.228.307 10.064-3.414 1.741-3.527 3.666-6.948 5.722-10.168 11.088-17.358 25.862-28.573 37.641-28.573 9.897 0 21.968 7.854 32.288 21.01 11.511 14.675 19.465 34.273 21.823 53.768 2.247 18.589-1.397 33.413-10.834 44.06-9.543 10.767-25.317 16.942-43.277 16.942s-33.734-6.175-43.277-16.942c-9.437-10.647-13.082-25.471-10.834-44.061.412-3.409.998-6.865 1.741-10.27z"/><path d="m509.156 334.401c-6.673-30.814-15.917-50.069-24.856-68.689-11.466-23.882-23.321-48.576-30.494-99.927-10.026-71.773-50.064-117.439-105.259-120.978-1.249-9.493-5.354-26.555-18.79-42.19-2.704-3.146-7.448-3.507-10.597-.802-3.148 2.705-3.507 7.45-.802 10.597 10.113 11.768 13.709 24.708 14.99 32.487-31.465 2.4-58.379 18.636-77.329 46.579-20.295-29.93-50.056-46.902-85.585-46.902-58.785 0-101.79 46.445-112.233 121.209-7.173 51.351-19.028 76.046-30.494 99.927-8.939 18.62-18.183 37.874-24.857 68.688-6.657 30.735-2.981 80.82 29.284 120.82 37.851 46.93 96.101 56.78 138.3 56.78 25.352 0 56.493-3.569 85.528-16.583 24.372 10.996 53.144 16.583 85.61 16.583 47.258 0 86.163-11.617 115.633-34.529 3.276-2.547 3.868-7.268 1.32-10.545-2.547-3.276-7.27-3.866-10.545-1.32-26.77 20.812-62.57 31.365-106.408 31.365-25.408 0-48.273-3.607-68.208-10.724 12.837-7.887 24.888-18.029 35.37-31.025 32.264-40 35.938-90.085 29.282-120.82-6.673-30.814-15.917-50.068-24.856-68.688-6.789-14.14-13.809-28.763-19.772-48.73-1.188-3.977-5.379-6.235-9.351-5.05-3.977 1.188-6.238 5.374-5.05 9.351 6.302 21.102 13.583 36.268 20.624 50.933 8.957 18.657 17.418 36.279 23.716 65.365 5.955 27.495 2.643 72.331-26.292 108.203-27.01 33.486-70.789 51.185-126.603 51.185s-99.593-17.7-126.603-51.185c-28.935-35.872-32.248-80.708-26.293-108.203 6.299-29.085 14.759-46.707 23.717-65.365 11.963-24.918 24.334-50.685 31.83-104.353 4.602-32.945 16.07-60.411 33.166-79.429 16.956-18.861 39.15-28.83 64.182-28.83s47.226 9.969 64.182 28.83c17.096 19.018 28.565 46.483 33.166 79.428 1.143 8.189 2.455 16.08 3.898 23.454.797 4.073 4.747 6.73 8.818 5.931 4.073-.797 6.729-4.746 5.931-8.818-1.391-7.107-2.658-14.726-3.763-22.645-3.173-22.715-9.356-42.81-18.07-59.788 17.795-29.951 44.988-46.391 76.976-46.391 25.032 0 47.226 9.97 64.182 28.83 17.096 19.018 28.565 46.483 33.166 79.429 7.496 53.667 19.867 79.434 31.83 104.352 8.957 18.658 17.418 36.28 23.716 65.366 5.906 27.269 2.69 71.813-25.813 107.606-2.322 2.916-2.114 7.224.476 9.903 3.11 3.217 8.497 2.954 11.282-.541 31.784-39.911 35.35-89.668 28.748-120.151z"/></svg>