<!--?xml version="1.0" encoding="utf-8"?-->
<!-- Generator: Adobe Illustrator 22.1.0, SVG Export Plug-In . SVG Version: 6.00 Build 0)  -->
<svg version="1.1" id="_x34_" xmlns="http://www.w3.org/2000/svg" xmlns:xlink="http://www.w3.org/1999/xlink" x="0px" y="0px" viewBox="0 0 800 521.1" style="width: 371px;" xml:space="preserve">
<style type="text/css">
	.stblack{fill:#000000;}
	.st0{fill:#FFFFFF;}
</style>
<g>
	<path class="stblack" d="M319.9,508c-162,0-293.6-102.6-299.6-233.5c-3.1-66.7,26.4-130.6,82.9-180.1c55.5-48.6,130.7-77.3,211.8-81.1
		c5.9-0.3,11.8-0.4,17.7-0.4c67.8,0,134.2,18.6,186.8,52.4c49,31.5,84.8,75.1,101.7,123.7c68.7-2.7,138.4-20.8,139.2-21
		c1.3-0.3,2.7-0.5,4-0.5c5.6,0,10.9,3,13.7,8.1c3.5,6.3,2.3,14.1-3,19.1c-35.6,33.4-84.1,62.5-144.2,86.5
		c-7.3,57.9-39.5,112.1-91.4,153.6c-54.3,43.4-126,69.3-201.9,72.8C331.7,507.9,325.7,508,319.9,508L319.9,508z"></path>
	<path class="st0" d="M626.5,266.1c44.8-18,97.6-45,137.8-82.8c0,0-69,18.2-139.2,21.4c-5.2,0.2-24.5,1.7-29.6,1.7
		c-1.4-4.9,11.3-11,9.5-15.7C568.6,91.9,451.3,22.9,315.6,29.1C155.3,36.5,30,146.1,35.9,273.9c5.9,127.8,140.6,225.4,300.9,218.1
		c144-6.6,259.6-95.6,277.5-206.2c0.8-5.1-15.7-3.3-15.3-8.5C602.4,275.9,623,267.5,626.5,266.1z"></path>
</g>
</svg>
